<svg width="20" height="20" viewBox="0 0 20 20" fill="none" xmlns="http://www.w3.org/2000/svg">
<path fill-rule="evenodd" clip-rule="evenodd" d="M16.2642 2.06138L16.4958 2.09044C17.1079 2.17491 17.918 2.28843 18.3766 2.74799C18.7526 3.12308 18.897 3.7334 18.9833 4.27833L19.0342 4.62889C19.1486 5.45537 19.1786 6.53795 18.9833 7.74043C18.5982 10.1136 17.3349 12.9454 14.1627 15.1378C14.1454 15.3086 14.1445 15.4811 14.1481 15.6537L14.1572 15.9116C14.1717 16.3085 14.1863 16.7054 14.0755 17.0905C13.9029 17.6899 13.2881 18.085 12.7132 18.3683L12.4316 18.5018L12.0684 18.6617C11.3891 18.9505 10.4718 19.2466 9.8969 18.6707C9.55179 18.3265 9.41012 17.8216 9.29478 17.3193L9.25209 17.1313C9.204 16.894 9.14337 16.6593 9.07045 16.4284C9.02505 16.2958 8.976 16.1605 8.92333 16.0242C8.86535 16.0954 8.80382 16.1636 8.73897 16.2286C8.42564 16.5419 7.95793 16.7608 7.57286 16.9143C7.15237 17.0805 6.67648 17.2258 6.23601 17.3457L6.00987 17.4056L5.57666 17.5137L5.18433 17.6045L4.71479 17.7044L4.42145 17.7616C4.27515 17.7887 4.12446 17.7798 3.98237 17.7357C3.84028 17.6915 3.71106 17.6135 3.60585 17.5083C3.50064 17.4031 3.4226 17.2739 3.37847 17.1318C3.33433 16.9897 3.32543 16.839 3.35252 16.6927L3.43062 16.3012L3.57048 15.6673L3.6831 15.2041L3.76846 14.8772C3.88835 14.4376 4.03366 13.9617 4.20076 13.5421C4.35334 13.1561 4.57221 12.6884 4.88553 12.375L4.95819 12.3051L4.90006 12.2815C4.74485 12.2225 4.58764 12.1689 4.42872 12.1207L4.17715 12.0435C3.54687 11.8528 2.87299 11.6476 2.45432 11.228C1.94574 10.7203 2.11738 9.94738 2.36259 9.30437L2.46249 9.05552L2.62324 8.69223L2.75675 8.41069C3.0401 7.8367 3.43516 7.22184 4.03456 7.04928C4.35243 6.95846 4.68301 6.95301 5.0154 6.96209L5.21521 6.96845C5.47495 6.97753 5.73378 6.98752 5.98716 6.963C8.17952 3.78971 11.0112 2.52639 13.3843 2.1413C14.3363 1.98516 15.305 1.95828 16.2642 2.06138ZM7.35307 13.573C7.21014 13.4672 7.03931 13.4056 6.86174 13.3959C6.68418 13.3862 6.50767 13.4288 6.35407 13.5185L6.25417 13.5857L6.16971 13.6611L6.05619 13.8046C5.82006 14.146 5.68565 14.6183 5.5812 15.0597L5.48312 15.4847L5.4368 15.6782L5.61027 15.6364L5.98989 15.5492C6.51482 15.4266 7.09697 15.2677 7.45479 14.9453C7.61037 14.7898 7.70423 14.5831 7.71893 14.3636C7.73363 14.1441 7.66817 13.9267 7.53471 13.7519L7.46024 13.6665L7.43844 13.6456L7.35307 13.573ZM13.8766 7.23909C13.7079 7.07039 13.5077 6.93655 13.2874 6.84523C13.067 6.7539 12.8308 6.70688 12.5923 6.70684C12.3537 6.70679 12.1175 6.75374 11.8971 6.84498C11.6767 6.93623 11.4765 7.06999 11.3078 7.23864C11.1391 7.40728 11.0052 7.60751 10.9139 7.82787C10.8226 8.04824 10.7756 8.28444 10.7755 8.52298C10.7755 8.76153 10.8224 8.99774 10.9137 9.21814C11.0049 9.43854 11.1387 9.63881 11.3073 9.80752C11.6479 10.1482 12.1099 10.3397 12.5916 10.3398C13.0734 10.3399 13.5354 10.1486 13.8761 9.80797C14.2168 9.46738 14.4083 9.00538 14.4084 8.52363C14.4084 8.04187 14.2172 7.57981 13.8766 7.23909Z" fill="#707070"/>
</svg>
