<svg width="20" height="20" viewBox="0 0 20 20" fill="none" xmlns="http://www.w3.org/2000/svg">
<path d="M13.2175 10.5C15.578 10.5 17.4938 8.596 17.4938 6.25C17.4938 3.904 15.578 2 13.2175 2C10.857 2 8.94123 3.904 8.94123 6.25C8.94123 8.596 10.857 10.5 13.2175 10.5ZM17.8786 15.26C17.5451 14.92 17.126 14.75 16.6385 14.75H10.6517L8.87281 14.1295L9.15505 13.3305L10.6517 13.9H13.0465C13.3458 13.9 13.5853 13.781 13.782 13.5855C13.9787 13.39 14.0728 13.152 14.0728 12.8885C14.0728 12.4295 13.8504 12.115 13.4057 11.9365L7.18796 9.65H5.52021V17.3L11.507 19L18.3747 16.45C18.3832 15.9995 18.2122 15.6 17.8786 15.26ZM3.8097 9.65H0.375V19H3.8097V9.65Z" fill="#707070"/>
</svg>
