<svg width="70" height="70" viewBox="0 0 70 70" fill="none" xmlns="http://www.w3.org/2000/svg">
<path d="M67.0002 35.0001C67.0002 52.6732 52.6732 67.0002 35.0001 67.0002C17.3269 67.0002 3 52.6732 3 35.0001C3 17.3269 17.3269 3 35.0001 3C52.6732 3 67.0002 17.3269 67.0002 35.0001Z" fill="#FFBB0D"/>
<path fill-rule="evenodd" clip-rule="evenodd" d="M69.3706 34.9999C69.3706 53.9821 53.9824 69.3703 35.0001 69.3703C16.0178 69.3703 0.629639 53.9821 0.629639 34.9999C0.629639 16.0176 16.0178 0.629395 35.0001 0.629395C53.9824 0.629395 69.3706 16.0176 69.3706 34.9999ZM35.0001 66.9999C52.6733 66.9999 67.0002 52.673 67.0002 34.9999C67.0002 17.3267 52.6733 2.99977 35.0001 2.99977C17.3269 2.99977 3.00002 17.3267 3.00002 34.9999C3.00002 52.673 17.3269 66.9999 35.0001 66.9999Z" fill="#E89B05"/>
<path fill-rule="evenodd" clip-rule="evenodd" d="M5.37016 36.1851C4.7156 36.1851 4.18497 35.6544 4.18497 34.9999C4.18498 17.9813 17.9813 4.18497 34.9999 4.18497C35.6544 4.18497 36.1851 4.7156 36.1851 5.37016C36.1851 6.02472 35.6544 6.55535 34.9999 6.55535C19.2904 6.55535 6.55535 19.2904 6.55535 34.9999C6.55535 35.6544 6.02472 36.1851 5.37016 36.1851Z" fill="#E8AA0A"/>
<path fill-rule="evenodd" clip-rule="evenodd" d="M64.6298 33.8145C65.2844 33.8145 65.815 34.3451 65.815 34.9996C65.815 52.0182 52.0187 65.8145 35.0001 65.8145C34.3456 65.8145 33.8149 65.2839 33.8149 64.6293C33.8149 63.9748 34.3456 63.4442 35.0001 63.4442C50.7096 63.4442 63.4446 50.7091 63.4446 34.9996C63.4446 34.3451 63.9753 33.8145 64.6298 33.8145Z" fill="#E8AA0A"/>
<path d="M58.7039 34.9997C58.7039 48.0909 48.0914 58.7034 35.0002 58.7034C21.9089 58.7034 11.2964 48.0909 11.2964 34.9997C11.2964 21.9084 21.9089 11.2959 35.0002 11.2959C48.0914 11.2959 58.7039 21.9084 58.7039 34.9997Z" fill="#FFDD28"/>
<path fill-rule="evenodd" clip-rule="evenodd" d="M61.0741 34.9999C61.0741 49.4003 49.4003 61.0741 34.9999 61.0741C20.5996 61.0741 8.92578 49.4003 8.92578 34.9999C8.92578 20.5996 20.5996 8.92578 34.9999 8.92578C49.4003 8.92578 61.0741 20.5996 61.0741 34.9999ZM34.9999 58.7037C48.0911 58.7037 58.7037 48.0911 58.7037 34.9999C58.7037 21.9087 48.0911 11.2962 34.9999 11.2962C21.9087 11.2962 11.2962 21.9087 11.2962 34.9999C11.2962 48.0911 21.9087 58.7037 34.9999 58.7037Z" fill="#E89B05"/>
<path fill-rule="evenodd" clip-rule="evenodd" d="M35 55.1482C46.1275 55.1482 55.1482 46.1275 55.1482 35C55.1482 34.3454 55.6788 33.8148 56.3334 33.8148C56.9879 33.8148 57.5186 34.3454 57.5186 35C57.5186 47.4366 47.4366 57.5186 35 57.5186C34.3454 57.5186 33.8148 56.9879 33.8148 56.3334C33.8148 55.6788 34.3454 55.1482 35 55.1482Z" fill="#ECC704"/>
<path fill-rule="evenodd" clip-rule="evenodd" d="M35 14.8518C23.8725 14.8518 14.8518 23.8725 14.8518 35C14.8518 35.6546 14.3212 36.1852 13.6666 36.1852C13.0121 36.1852 12.4814 35.6546 12.4814 35C12.4814 22.5634 22.5634 12.4814 35 12.4814C35.6546 12.4814 36.1852 13.0121 36.1852 13.6666C36.1852 14.3212 35.6546 14.8518 35 14.8518Z" fill="#FFEF9C"/>
</svg>
