<svg width="25" height="25" viewBox="0 0 25 25" fill="none" xmlns="http://www.w3.org/2000/svg">
<g clip-path="url(#clip0_52_240)">
<path d="M3.72888 0.75C3.72888 0.551088 3.80812 0.360322 3.94917 0.21967C4.09022 0.0790176 4.28153 0 4.481 0L19.5235 0C19.723 0 19.9143 0.0790176 20.0553 0.21967C20.1964 0.360322 20.2756 0.551088 20.2756 0.75C20.2756 1.557 20.2576 2.325 20.2245 3.054C20.8189 3.15215 21.3875 3.36798 21.8969 3.68877C22.4063 4.00956 22.8461 4.42882 23.1904 4.92181C23.5347 5.41481 23.7766 5.97156 23.9017 6.55924C24.0267 7.14692 24.0326 7.75363 23.9188 8.34358C23.805 8.93353 23.5738 9.49479 23.239 9.99426C22.9042 10.4937 22.4725 10.9213 21.9694 11.2517C21.4662 11.5822 20.9018 11.8088 20.3094 11.9182C19.717 12.0277 19.1086 12.0177 18.5202 11.889C17.3318 14.6865 15.6952 16.0545 14.2586 16.4055V19.665L16.4022 20.199C16.694 20.271 16.9693 20.4015 17.21 20.5815L19.9748 22.65C20.1011 22.7444 20.1943 22.8761 20.2414 23.0264C20.2885 23.1766 20.287 23.3378 20.237 23.4872C20.1871 23.6365 20.0913 23.7664 19.9633 23.8584C19.8352 23.9505 19.6814 24 19.5235 24H4.481C4.32315 24 4.16929 23.9505 4.04123 23.8584C3.91317 23.7664 3.81739 23.6365 3.76747 23.4872C3.71756 23.3378 3.71602 23.1766 3.76309 23.0264C3.81016 22.8761 3.90344 22.7444 4.02973 22.65L6.79454 20.5815C7.03522 20.4015 7.3105 20.271 7.60232 20.199L9.74588 19.665V16.4055C8.30932 16.0545 6.6727 14.6865 5.48434 11.8875C4.89555 12.0169 4.28673 12.0274 3.69382 11.9183C3.1009 11.8092 2.53593 11.5827 2.03225 11.2523C1.52858 10.9218 1.09642 10.494 0.761303 9.99424C0.426183 9.49445 0.194897 8.93276 0.0811038 8.34235C-0.0326895 7.75193 -0.0266827 7.14476 0.0987695 6.5567C0.224222 5.96864 0.466576 5.41161 0.811518 4.91851C1.15646 4.4254 1.597 4.00623 2.10711 3.68573C2.61722 3.36523 3.18657 3.14992 3.78153 3.0525C3.74611 2.28551 3.72856 1.5178 3.72888 0.75V0.75ZM3.8778 4.56C3.09286 4.70322 2.39713 5.1515 1.94365 5.80624C1.49017 6.46098 1.31609 7.26853 1.45972 8.05125C1.60334 8.83397 2.0529 9.52774 2.70949 9.97994C3.36608 10.4321 4.17592 10.6057 4.96086 10.4625C4.45994 8.8875 4.07636 6.9435 3.8778 4.56V4.56ZM19.0452 10.4625C19.8301 10.6057 20.6399 10.4321 21.2965 9.97994C21.9531 9.52774 22.4027 8.83397 22.5463 8.05125C22.6899 7.26853 22.5158 6.46098 22.0624 5.80624C21.6089 5.1515 20.9132 4.70322 20.1282 4.56C19.9281 6.945 19.5446 8.8875 19.0452 10.4625Z" fill="#9E9E9E" fill-opacity="0.65"/>
<path d="M10.382 12C10.362 11.88 10.352 11.7567 10.352 11.63C10.352 11.1967 10.4253 10.81 10.572 10.47C10.7253 10.1233 10.922 9.81 11.162 9.53C11.402 9.24333 11.6553 8.98 11.922 8.74C12.1953 8.49333 12.4486 8.26 12.682 8.04C12.922 7.81333 13.1186 7.58667 13.272 7.36C13.4253 7.13333 13.502 6.89667 13.502 6.65C13.502 6.37 13.3986 6.14 13.192 5.96C12.9853 5.77333 12.7186 5.68 12.392 5.68C12.112 5.68 11.8553 5.73667 11.622 5.85C11.3953 5.95667 11.182 6.10333 10.982 6.29L10.482 5.68C10.7486 5.44 11.042 5.24667 11.362 5.1C11.6886 4.95333 12.0653 4.88 12.492 4.88C12.8853 4.88 13.2286 4.95667 13.522 5.11C13.8153 5.25667 14.042 5.46 14.202 5.72C14.3686 5.98 14.452 6.27 14.452 6.59C14.452 6.91 14.382 7.20667 14.242 7.48C14.102 7.75333 13.922 8.01 13.702 8.25C13.482 8.49 13.2453 8.72333 12.992 8.95C12.7386 9.17 12.4953 9.39667 12.262 9.63C12.0286 9.86333 11.8286 10.1067 11.662 10.36C11.502 10.6133 11.402 10.8867 11.362 11.18H14.442V12H10.382Z" fill="white"/>
</g>
<defs>
<clipPath id="clip0_52_240">
<rect width="25" height="25" fill="white"/>
</clipPath>
</defs>
</svg>
